<?xml version="1.0" encoding="UTF-8"?><svg id="a" xmlns="http://www.w3.org/2000/svg" viewBox="0 0 1200 1200"><defs><style>.b{font-family:CourierPrime, Courier Prime;font-size:472.53px;}.b,.c{fill:#de0000;}.d{fill:#fde1e1;}.e{fill:#bdd3ef;}</style></defs><rect class="e" width="1200" height="1200"/><rect class="d" width="1200" height="1200"/><text class="b" transform="translate(175 737.03)"><tspan x="0" y="0">iLa</tspan></text><path class="c" d="M192.14,809.03l-.11-.33-.16,.38,.11,.22h.05l.11-.05v-.22Zm-2.13-41.7h3.44s1.26,0,1.26,1.37c0,0,0,2.57-.22,4.92,0,0,.11,.27,.11,.38,0,0,0,.22-.11,.44,0,0,.33,6.45,.33,12.02v1.26s0,4.97-.11,13.77c0,0-.11,.44-.11,.77,0,0,.11,.27,.22,1.26l-.33,.6v.11s.22,.82,.22,.87v.27s0,.82-.11,1.31c0,0,.11,.71,.11,1.48v.33s0,1.58-1.37,1.58c0,0-1.26,0-2.3,.11l-.71-.11-.55,.11s-.93,0-.93-3.06v-.22s0-.16,.11-1.2l-.11-.22,.11-.49s-.22-1.15-.22-1.37c0,0,.05-1.8,.22-1.8,0,0-.11-1.15-.11-1.69v-12.02s0-.93,.11-1.64c0,0-.11-.55-.11-1.53v-7.32l.11-.22s-.11,0-.11-.11l.22-.11s.11,.22,.11,.33h.11s.16,0,.38-.33c0,0-.44-.16-.82-.55,0,0,0-.16,.11-.16,0,0,0-.38-.22-2.46,0,0,.11-1.31,.11-2.51v-.77s0-.87-.11-2.13c0,0,0-1.26,1.26-1.26Z"/><path class="c" d="M286.08,768.97l-.05-.16-.11,.11-.05,.11v.05l.05,.11,.11-.05,.05-.05v-.11Zm-9.95-1.64h4.7s.38,0,.82,.33h.44s.6,0,.6-.22c0,0,.11,0,.11,.11,0,0,1.15-.11,1.69-.11h3.61s1.48,0,1.48,1.69l-.16,.82s.16,.22,.16,.33c0,0,0,.33-.38,.33v.33l.38,.44v.11s0,1.15-1.26,1.15h-1.48s-.11,0-.11,.11c0,0-.16,0-.16-.11,0,0-.55,0-1.31,.11,0,0-2.19-.11-4.15-.11v-.11s-.22,.11-.6,.11v1.15s0,.77-.11,.87c0,0,.11,.77,.11,1.26v2.46s0,.44-.11,1.26c0,0,.11,.16,.11,.44,0,0,0,.27-.11,.44,0,0,.11,.82,.11,1.26v1.48s0,.11-.11,.11c0,0,.16,1.37,.33,1.69,0,0-.22,.05-.22,.33v.22h.71s0-.66,.33-.66c0,0,1.26,0,2.3,.11,0,0,1.15-.11,1.97-.11,0,0,1.91,0,1.91,1.53v2.73s0,1.26-1.15,1.26h-5.57s-.16,0-.16-.11c0,0-.22,.11-.33,.11,0,0,0,.66,.11,2.79,0,0,0,.71-.11,1.69,0,0,.11,1.8,.11,3.66v.44s0,.55-.11,1.31c0,0,.22,.6,.22,2.4v.44s0,.11,.11,.11l-.11,.22v.82s.05,.22,.27,.22h7.76s1.26,0,1.26,1.37c0,0,0,.49-.11,.77,0,0,.11,.77,.11,1.2v.93s0,1.04-2.08,1.04c0,0-.71,0-2.68,.22,0,0-.33,0-.33-.11,0,0-1.53,.11-2.24,.11h-2.95s-1.04,0-2.35,.11c0,0-2.51,0-2.51-1.26,0,0,0-4.15,.11-4.15,0,0-.22-.38-.22-.66v-9.73l.11-.55s0-.33-.22-.71c0,0,.11-1.64,.11-2.79v-.33l.33-.44v-.27s0-.22-.22-.22l.11-.55v-.11s-.33-.44-.33-1.04v-.55s0-.49,.22-.93c0,0-.22-.44-.22-1.31v-.11s0-.38,.11-1.04c0,0-.22-.38-.22-.87v-7s0-.49-.11-1.26l.11-.22s-.11-1.91-.11-2.95v-1.42s0-.6,.33-.6v-.11s-.33,0-.33-.55v-.11s0-1.04,1.69-1.04Zm-7.49-.05l2.46,.6s0,.38-.44,3.61c0,0,.11,.22,.11,.38,0,0-.11,.33-.22,.33l.11,.6v.11s-.49,4.65-.93,5.9v1.48s0,.44-.77,1.04c0,0,.38,.44,.38,.66,0,0-.87,5.63-1.09,8.8,0,0-.27,1.15-.82,1.64,0,0-.66,8.42-1.26,9.56l.11,.66-1.04,6.18s0,.16,.11,.16c0,0-.27,.77-.49,.77h-.82s0,.38-2.46,.49l-.66-.33s0,.05-.44,.33l-.22-.11s-.11,0-.93,.22h-.22s-.6,0-1.97-.11c0,0-.66-.55-1.09-3.61,0,0-.22-2.02-.22-3.17,0,0,0,.11-.16,.11,0,0,0-.11-.11-.11l.11-.6s-.33-1.26-.77-4.54c0,0-.6-3.17-.82-5.46l.11-.22s-.33,0-.93-6.07l-1.31-8.47s.11-.22,.11-.33c0,0-.27-.33-.6-3.55,0,0-.44-1.69-.44-2.24l.11-.6s-.11,0-.11-.11l.11-.71h-.11s-.27,0-.6-2.02c0,0,0-1.26,1.86-1.26h.87s.22,0,.33-.05c0,0,.11-.05,1.42-.05,0,0,1.26,0,1.26,1.15l-.11,.49s.11,.33,.22,.33l-.11,.27v.11s.33,.44,.33,.71l-.11,.44s.55,1.2,.55,2.46l-.16,.49s.38,0,.6,3.28c0,0,.27,.98,.6,3.17,0,0,1.97,15.79,2.4,18.36,0,0-.05,.71-.55,1.26v.11s.55,0,.55,.71c0,0,.11,2.13,.55,2.13,0,0,.22-.16,.93-4.97,0,0,.33-.11,.33-.71l-.22-.33s1.26-8.25,1.26-9.51v-.33l.33-.49-.22-1.09s0-1.2,1.04-7.43c0,0,.22-5.14,.87-5.14,0,0,.05-5.46,1.15-5.46h.71l1.86,.44s-.6-.27-.6-.44h.11s.16,0,.16,.11Zm-22.57,28.25h0l.22,.11h.11v-.38h-.11s-.22,.05-.22,.27Zm-5.68-23.55l-.93-.11s-.22,0-.22-.22c0,0-2.79,0-3.72,1.37,0,0-.49,1.04-.49,3.01h.11s0,.77-.77,1.75c0,0,.55,0,.66,.82,0,0,0,.22-.11,.22,0,0,.11,2.19,.11,3.17v3.44s0,.49,.11,1.31c0,0-.11,.11-.11,.87h.11l-.11,.27s.11,1.26,.11,2.19c0,0,0,.44-.66,1.04v.11s.77,.71,.77,2.08l-.11,.71s.27,.77,.27,1.04v6.83s0,1.91,.9,2.54c0,0,.9,.63,2.54,.63,0,0,.87,0,1.53-.27,0,0,1.37-.77,1.37-2.19l-.22-16.78,.11-.6s-.22-1.2-.22-4.26v-1.53s0-.27-.11-.49c0,0,0-.11,.11-.11,0,0-.11-1.37-.11-1.97v-1.69s0-1.69-1.04-3.17h.11Zm-1.04-5.41h.33s2.35,.55,3.93,1.15c0,0,3.22,2.9,3.22,5.19,0,0,0,.22-.22,.22,0,0-.22-.11-.33-.11v.11s.93,.44,.93,1.53c0,0,.11,1.09,.11,2.19v1.75s0,.6-.22,1.42c0,0,.11,.16,.11,.44h-.11s.33,.49,.33,4.75v.93l.11,1.37s-.16,0-.33,.38c0,0,.44,.38,.44,2.4v5.46s0,1.15,.11,2.9c0,0-.11,.33-.11,1.37,0,0,.11,1.48,.11,1.53,0,0-.66,4.54-1.37,4.54,0,0-1.75,4.26-7.98,4.26h-.27s-3.17,0-4.97-1.53v.16s-.82,0-2.79-2.79c0,0-1.04-1.75-1.04-4.65h-.11s.11-.22,.11-.33c0,0,0-.6-.11-2.35,0,0,.11-.66,.11-.93h-.11s0-.11,.11-.11l-.11-1.37v-.16s0-.71,.11-1.48c0,0-.22-2.13-.33-2.46,0,0,.22-.6,.22-2.4v-6.28l.11-.22,.27,.11h.22v-.33s-.71-.33-.71-2.79v-.44s0-.44,.11-.6c0,0-.11-.82-.11-1.26v-.27s0-7.81,3.39-9.73c0,0,1.31-1.42,6.83-1.58Zm-26.72,40.66h0v.22s.05,.27,.22,.27h.11v-.16s0-.16-.33-.33Zm-.22-1.97h-.22v.11h.22v-.11Zm-.22-38.47h3.01s1.37,0,1.37,1.97c0,0,.11,1.04,.11,1.75,0,0-.11,1.42-.11,1.53l.22,3.33s-.11,.66-.11,.93l.11,.6s-.05,1.26-.22,1.26c0,0,0,.11,.11,.11,0,0,.11,2.35,.11,3.22,0,0,0,1.15-.11,4.54l.11,.6s-.11,3.12-.11,3.33l.22,.82-.11,.49s.11,.82,.27,1.04c0,0-.16,1.58-.16,2.79v1.58l.16,.71s-.16,.6-.27,.6l.11,1.37v5.08h8.69s.71,.27,.71,1.64v2.57s0,1.37-1.75,1.37h-.22s-.11,0-.11-.11l-.22,.11h-.11s-.11,0-.11-.11l-.27,.11h-.55l-.38-.22-.33,.22h-2.79s-.82,0-.93-.11c0,0-.77,.11-1.26,.11h-4.75s-1.64,0-1.64-1.15l.22-1.75s-.22-.38-.22-.71v-.66s0-.16,.11-.16l-.11-.22v-5.3s0-.44-.11-1.04c0,0,.11-.16,.11-.82l-.11-.71s0-.11,.11-.33c0,0,0-.22-.11-1.42,0,0,.11-6.45,.22-6.45,0,0-.11-1.09-.11-2.13l-.11-7.05s0-.82,.11-.93c0,0-.11-.82-.11-1.37v-4.43s0-.44,.11-1.04c0,0-.05-.44-.22-.44l.11-.27v-3.55s0-1.31,1.42-1.31Z"/><path class="c" d="M496.37,779.84v-.33l-.22-.11h-.05l-.22,.11v.27l.05,.05,.22,.11,.22-.11Zm6.28-13.12h0s5.3,0,7.76,4.75c0,0,1.04,2.24,1.04,5.96,0,0-.16,.98-1.04,.98h-2.73s-.11,0-.11-.11c0,0-.22,.11-.33,.11,0,0-1.75,0-1.75-1.37v-1.09s-.27-3.55-2.24-3.55c0,0,0-.11-.44-.11h-.71s-1.09,0-2.4,1.37c0,0,0-.44-.44-.44l-.11,.22v.11s.55,0,.55,.22c0,0-.22,1.42-.22,2.4v17.93s0,.66,.11,1.86c0,0-.11,0-.11,1.26v.11s.05,.44,.11,1.26c0,0,0,.11-.11,.11l.11,1.37v1.8s0,.71,.49,2.02v.38s1.64,.87,3.17,.87c0,0,1.31,0,2.24-2.13l.16-1.15v-3.88s0-.11,.11-.11l-.11-.22v-7.16s0-.22-.27-.22h-1.58s-.87,0-1.15-.6v-.77s0-.27-.11-.49c0,0,0-2.24,.71-2.24v-.11l-.6-.49v-.22s0-.66,3.44-.66h4.21s1.26,0,1.26,1.69v15.03s0,6.61-5.79,8.74c0,0-2.08,.38-2.08,.44l-.55-.11h-.71s-5.9,0-8.03-5.03c0,0-.82-2.24-.82-3.61v-3.88s0-1.09,.11-1.15c0,0-.11-.93-.11-1.58v-10.33s0-2.08-.11-5.25c0,0,.22-.44,.22-.66,0,0-.22-.44-.22-.93v-.77s0-6.78,3.88-9.13c0,0,2.02-1.48,5.3-1.48Zm-17.93,41.04l.11,.11h.11v-.16l.05-.11-.11-.11-.16,.27Zm-.11-40.99h0s.22,.11,.38,.11c0,0,.66,0,2.95-.11,0,0,1.04,0,1.04,3.01,0,0,0,.98,.22,2.24l-.22,.49s.11,.82,.11,1.37c0,0,0,.27-.11,.93v.93s-.16,.11-.71,.11v.22s.71,0,.71,.6v9.02s-.22,5.03-.22,6.12c0,0,.22,1.8,.6,9.84,0,0-.11,1.58-.11,2.68,0,0,.22,3.12,.22,3.77,0,0,0,1.53-1.04,1.53,0,0-4.04,.11-4.26,.11,0,0-1.26,0-1.58-2.9,0,0-.82-3.66-1.64-5.52,0,0,.11-.22,.11-.44,0,0-1.53-6.23-5.36-20.33,0,0-.38-2.46-.71-2.46h-.11v1.42s0,2.4,.11,5.46l-.11,.82s.11,.82,.22,1.04c0,0-.11,2.08-.11,3.39v1.58s.22,1.75,.22,1.91v2.46s.33,3.61,.33,7.81v1.97s0,.66,.16,1.64c0,0,0,2.35-2.13,2.35,0,0-.44,0-2.13,.11,0,0-1.37,0-1.37-2.79,0,0-.11-3.39-.11-6.56,0,0,0-.11,.11-.11,0,0-.11-.16-.22-1.42,0,0-.16-8.09-.16-13.72v-.77s0-.27-.11-.49c0,0,.11-.22,.11-.33,0,0-.33-1.75-.33-5.08v-.93s0-.49,.11-1.09c0,0-.22-.44-.22-.93v-7.38s0-1.04,1.15-1.04c0,0,1.37,0,5.74-.11,0,0,.87,0,1.64,4.59,0,0,.82,2.73,5.74,22.02h.33l-.16-19.35h-.11l.22-.49-.33-2.19s.11-2.35,.11-3.55c0,0,0-.11-.11-.33,0,0,.33-1.26,1.15-1.26Zm-22.79,7.87l-.11-.27-.11-.11-.33,.33,.11,.11,.11-.11,.33,.05Zm1.53-1.75l.11-.22,.16-.33-.49,.11-.11-.05v.16l.33,.33Zm-1.53-5.79h.66l1.42,.11,.22-.11s.93,.27,.93,1.42v1.04s0,.77-.11,1.37c0,0,.11,.6,.11,1.42v.44l-.11,.71s.11,.22,.11,.33l-.11,.6s.22,1.26,.22,2.9v3.5s0,.27-.22,.66c0,0,.22,.77,.22,1.04v.82s0,.27-.22,1.04c0,0,.22,.38,.22,.71v3.33s0,.44-.33,1.2c0,0,.22,.38,.22,.66v.11s0,.16-.11,.16l.11,.22v3.61s0,.6-.33,1.04c0,0,.22,.38,.22,.66v3.5s0,.49-.11,1.26c0,0,.11,.22,.11,.49,0,0-.27,.93-.38,.93,0,0,.16,.33,.27,.33,0,0,0,.11-.11,.11l.11,1.42v1.69s0,.49-.11,.93c0,0,.11,.49,.11,.93v1.31s0,1.26-1.64,1.26c0,0-.66,0-1.26-.93h-.27v.22l.27,.38v.22l-.82,.11h-.71s-1.37,0-1.37-.82l-.11-.71s0-.05,.11-.66l-.11-.49,.11-.44s-.11-.66-.11-.93c0,0,.22-.71,.33-.71l-.33-1.75s0-.77,.44-1.26c0,0-.44-.16-.44-.33v-.6s0-.6,.22-.6l-.11-.22v-.44l.11-.71s-.22-.6-.22-.82c0,0,.11-.82,.11-1.37l-.11-.49s.11-.16,.11-.55c0,0,0-.16-.11-.16l.11-.22v-2.08s0-.38,.11-.6l-.22-2.08s.11-.16,.11-.55l-.11-.49s.22-.38,.22-.66l-.11-1.2s.11-.44,.11-.82h-.11l.11-.22v-3.33s0-.49-.11-.93c0,0,.11-1.75,.33-2.35,0,0-.22-.38-.22-.66v-.38s0-.55,.11-1.15c0,0-.11-.44-.11-.93,0,0,0-.77,.33-1.26v-.38h-.33v-.22s.27,0,.44-.44v-.22s0-.27-.22-.27l-.22,.11-.11-.22v-1.97s0-.49,.11-1.26c0,0-.11-.22-.11-.6h.11l-.11-.22v-.11l.11-.71-.11-.22,.22-.71s-.22-.38-.22-.55c0,0,0-1.2,2.79-1.2Zm-14.76,33.77l-.27,.05v.22l.05,.11,.16,.05,.05-.44Zm-.05,.77h-.16l.05,.38,.55,.11,.05-.22-.22-.22-.11-.11-.16,.05Zm7.92-34.32h0s1.04,0,1.04,1.58v1.64s0,2.19-1.37,2.19h-4.7s-.22,0-.22,.22v.77s0,.38-.11,.38c0,0,0,.11,.11,.33,0,0,.11,2.84,.11,4.48v1.37s0,.77-.11,1.53c0,0,.11,.44,.11,1.26v.93s-.22,.77-.22,.87h.11v.93s.22,0,.22,.22c0,0,0,.55-.22,.98,0,0,.11,1.37,.22,1.37,0,0,0,.11-.11,.11,0,0,.11,.6,.11,.87,0,0-.22,6.5-.22,6.89h.11l-.11,.22v1.91s0,.6,.11,.77c0,0-.11,.6-.11,.71,0,0,.11,4.54,.11,6.28h.11l-.11,.22s.11,1.69,.11,2.57c0,0,0,1.15-1.69,1.15h-.93s-.93,0-2.24,.11c0,0-.98-.27-.98-.93l.11-.77s-.11-.55-.11-.87c0,0,.22,0,.22-.22v-.22s-.33-1.04-.33-3.99v-3.93s0-.44-.11-1.26c0,0,.44-1.2,.44-1.42v-.11s-.33,0-.33-.55v-10.11s0-.27-.11-.44c0,0,.16-.6,.55-1.04v-.11s-.55,0-.55-.93v-.22s0-.38,.11-.55c0,0-.27-1.58-.27-6.01v-1.04s0-.44,.16-1.04c0,0-.16-.38-.38-1.58,0,0-1.09,.11-1.69,.11h-1.04s-.27,0-.66-.22c0,0-.38,.11-.38,.22l-.22-.11s-1.09,.22-1.26,.22c0,0-.93,0-.93-4.04v-.22s0-1.26,2.02-1.26c0,0,12.57-.22,15.63-.22Zm-24.76,40.44l.11,.11h.11v-.16l.05-.11-.11-.11-.16,.27Zm-.11-40.99h0s.22,.11,.38,.11c0,0,.66,0,2.95-.11,0,0,1.04,0,1.04,3.01,0,0,0,.98,.22,2.24l-.22,.49s.11,.82,.11,1.37c0,0,0,.27-.11,.93v.93s-.16,.11-.71,.11v.22s.71,0,.71,.6v9.02s-.22,5.03-.22,6.12c0,0,.22,1.8,.6,9.84,0,0-.11,1.58-.11,2.68,0,0,.22,3.12,.22,3.77,0,0,0,1.53-1.04,1.53,0,0-4.04,.11-4.26,.11,0,0-1.26,0-1.58-2.9,0,0-.82-3.66-1.64-5.52,0,0,.11-.22,.11-.44,0,0-1.53-6.23-5.36-20.33,0,0-.38-2.46-.71-2.46h-.11v1.42s0,2.4,.11,5.46l-.11,.82s.11,.82,.22,1.04c0,0-.11,2.08-.11,3.39v1.58s.22,1.75,.22,1.91v2.46s.33,3.61,.33,7.81v1.97s0,.66,.16,1.64c0,0,0,2.35-2.13,2.35,0,0-.44,0-2.13,.11,0,0-1.37,0-1.37-2.79,0,0-.11-3.39-.11-6.56,0,0,0-.11,.11-.11,0,0-.11-.16-.22-1.42,0,0-.16-8.09-.16-13.72v-.77s0-.27-.11-.49c0,0,.11-.22,.11-.33,0,0-.33-1.75-.33-5.08v-.93s0-.49,.11-1.09c0,0-.22-.44-.22-.93v-7.38s0-1.04,1.15-1.04c0,0,1.37,0,5.74-.11,0,0,.87,0,1.64,4.59,0,0,.82,2.73,5.74,22.02h.33l-.16-19.35h-.11l.22-.49-.33-2.19s.11-2.35,.11-3.55c0,0,0-.11-.11-.33,0,0,.33-1.26,1.15-1.26Zm-33.66,37.6h-.16l-.11,.33h.22l.05-.05v-.27Zm7.38,1.75h0l-.11,.22s.11,.22,.11,.33h.22v-.33s0-.22-.22-.22Zm6.12-38.91h0s.38,.22,.44,1.15l.05,2.02s0,.22-.16,.55h.16v.71s0,.11,.11,.11c0,0-.11,.22-.11,.33l-.16,.33s.27,.38,.27,.6c0,0,0,.33-.11,.55,0,0,0,.49,.11,.66,0,0-.11,3.55-.11,5.57v4.59s0,.11,.11,.11l-.11,.22s0,.55,.11,1.69c0,0,0,.38-.11,.55,0,0,.11,3.61,.22,3.77,0,0-.11,.77-.11,1.26v4.86s0,2.3,.11,5.68c0,0,0,2.35-1.97,5.14,0,0-2.62,2.95-7.05,2.95,0,0-4.65,0-7.49-3.88,0,0-1.26-2.02-1.48-4.97,0,0,.11-9.51,.11-13.33,0,0,0-1.91-.11-6.89,0,0,0-.16,.11-.38,0,0-.11-1.15-.11-1.8v-7.27s0-.11-.11-.11l.11-.22v-.93s0-.11-.11-.11l.11-.22s-.11-1.15-.11-1.69c0,0,0-1.37,1.26-1.37h3.39s1.26,0,1.26,1.37v.11s0,5.08,.11,7.81c0,0-.11,2.46-.11,7.27h.11s-.11,.82-.22,.82l.11,.77s.11,7.6,.11,8.42c0,0-.22,.77-.22,.93,0,0,0,9.45,1.15,9.45,0,0,.55,.77,2.02,.77h.38s1.97,0,2.68-1.91l.27-1.48s-.11-4.75-.11-7.87v-1.15s0-.87-.16-2.13l.16-.22s-.16-1.48-.16-2.4v-.44s0-1.37,.27-5.03c0,0,.11-11.53,.11-14.21,0,0,0-.98,2.02-.98,0,0,.66,0,2.95-.11Zm-23.34,28.31h0l.22,.11h.11v-.38h-.11s-.22,.05-.22,.27Zm-5.68-23.55l-.93-.11s-.22,0-.22-.22c0,0-2.79,0-3.72,1.37,0,0-.49,1.04-.49,3.01h.11s0,.77-.77,1.75c0,0,.55,0,.66,.82,0,0,0,.22-.11,.22,0,0,.11,2.19,.11,3.17v3.44s0,.49,.11,1.31c0,0-.11,.11-.11,.87h.11l-.11,.27s.11,1.26,.11,2.19c0,0,0,.44-.66,1.04v.11s.77,.71,.77,2.08l-.11,.71s.27,.77,.27,1.04v6.83s0,1.91,.9,2.54c0,0,.9,.63,2.54,.63,0,0,.87,0,1.53-.27,0,0,1.37-.77,1.37-2.19l-.22-16.78,.11-.6s-.22-1.2-.22-4.26v-1.53s0-.27-.11-.49c0,0,0-.11,.11-.11,0,0-.11-1.37-.11-1.97v-1.69s0-1.69-1.04-3.17h.11Zm-1.04-5.41h.33s2.35,.55,3.93,1.15c0,0,3.22,2.9,3.22,5.19,0,0,0,.22-.22,.22,0,0-.22-.11-.33-.11v.11s.93,.44,.93,1.53c0,0,.11,1.09,.11,2.19v1.75s0,.6-.22,1.42c0,0,.11,.16,.11,.44h-.11s.33,.49,.33,4.75v.93l.11,1.37s-.16,0-.33,.38c0,0,.44,.38,.44,2.4v5.46s0,1.15,.11,2.9c0,0-.11,.33-.11,1.37,0,0,.11,1.48,.11,1.53,0,0-.66,4.54-1.37,4.54,0,0-1.75,4.26-7.98,4.26h-.27s-3.17,0-4.97-1.53v.16s-.82,0-2.79-2.79c0,0-1.04-1.75-1.04-4.65h-.11s.11-.22,.11-.33c0,0,0-.6-.11-2.35,0,0,.11-.66,.11-.93h-.11s0-.11,.11-.11l-.11-1.37v-.16s0-.71,.11-1.48c0,0-.22-2.13-.33-2.46,0,0,.22-.6,.22-2.4v-6.28l.11-.22,.27,.11h.22v-.33s-.71-.33-.71-2.79v-.44s0-.44,.11-.6c0,0-.11-.82-.11-1.26v-.27s0-7.81,3.39-9.73c0,0,1.31-1.42,6.83-1.58Zm-21.48,2.3l-.27,.11v.11l.16,.11,.11-.11v-.22Zm3.99,37.65l-.22,.05-.16,.16h-.11l-.05,.05-.22-.05-.11,.16,.16,.16,.22-.11h.11l.22-.05,.16-.22v-.16Zm-5.79-39.51h1.15s5.9,0,8.09,6.28c0,0,.33,1.86,.33,4.21,0,0-.16,1.15-1.15,1.15h-2.73s-.49,0-1.26,.11c0,0-.66,0-.77-1.26v-1.69s0-3.01-2.73-3.44h-1.04s-2.51,.55-2.51,3.44v.87s0,.6-.22,.6l.11,1.37v2.73s0,.6-.11,.98c0,0,.11,.6,.11,1.15v3.17s0,1.2-.11,1.69c0,0,.11,.87,.11,1.97v3.99l-.11,1.37h.11s0,.11-.11,.11c0,0,.11,1.48,.22,1.48,0,0-.11,.16-.22,.98l.11,.82s0,.27-.66,.66v.16s0,.22,.22,.22h.11l.22-.11,.11,.22v1.58s.38,3.06,2.62,3.06h1.26s1.53,0,2.51-2.73c0,0-.11-.66-.27-.66l.16-.22v-1.97s.05-1.26,.98-1.26l1.37,.11h2.4s1.15,0,1.15,1.58c0,0-.22,.49-.22,.82,0,0,0,.55,.22,.55,0,0,0,6.45-5.68,8.91,0,0-1.86,.44-3.22,.44,0,0-5.9,0-8.14-4.65,0,0-.82-1.8-.82-2.95,0,0,.11-.22,.11-.6,0,0-.33,0-.33-1.8v-3.28s.22-.27,.22-.49c0,0-.22-.98-.22-1.48v-1.48s0-.38,.33-.77v-.38s0-.11-.11-.11l.22-.44-.44-.11v-3.06s0-.22,.33-.22c0,0,0-.38-.33-.82v-5.57l.11-.66-.11-.22s.11-2.13,.11-3.55v-2.3s.33-3.5,1.15-3.5h.22v-.11l-.11-.71s0-1.91,4.75-3.83c0,0,1.48-.38,2.51-.38Zm-20.06,1.86l-.27,.11v.11l.16,.11,.11-.11v-.22Zm3.99,37.65l-.22,.05-.16,.16h-.11l-.05,.05-.22-.05-.11,.16,.16,.16,.22-.11h.11l.22-.05,.16-.22v-.16Zm-5.79-39.51h1.15s5.9,0,8.09,6.28c0,0,.33,1.86,.33,4.21,0,0-.16,1.15-1.15,1.15h-2.73s-.49,0-1.26,.11c0,0-.66,0-.77-1.26v-1.69s0-3.01-2.73-3.44h-1.04s-2.51,.55-2.51,3.44v.87s0,.6-.22,.6l.11,1.37v2.73s0,.6-.11,.98c0,0,.11,.6,.11,1.15v3.17s0,1.2-.11,1.69c0,0,.11,.87,.11,1.97v3.99l-.11,1.37h.11s0,.11-.11,.11c0,0,.11,1.48,.22,1.48,0,0-.11,.16-.22,.98l.11,.82s0,.27-.66,.66v.16s0,.22,.22,.22h.11l.22-.11,.11,.22v1.58s.38,3.06,2.62,3.06h1.26s1.53,0,2.51-2.73c0,0-.11-.66-.27-.66l.16-.22v-1.97s.05-1.26,.98-1.26l1.37,.11h2.4s1.15,0,1.15,1.58c0,0-.22,.49-.22,.82,0,0,0,.55,.22,.55,0,0,0,6.45-5.68,8.91,0,0-1.86,.44-3.22,.44,0,0-5.9,0-8.14-4.65,0,0-.82-1.8-.82-2.95,0,0,.11-.22,.11-.6,0,0-.33,0-.33-1.8v-3.28s.22-.27,.22-.49c0,0-.22-.98-.22-1.48v-1.48s0-.38,.33-.77v-.38s0-.11-.11-.11l.22-.44-.44-.11v-3.06s0-.22,.33-.22c0,0,0-.38-.33-.82v-5.57l.11-.66-.11-.22s.11-2.13,.11-3.55v-2.3s.33-3.5,1.15-3.5h.22v-.11l-.11-.71s0-1.91,4.75-3.83c0,0,1.48-.38,2.51-.38Zm-14.26,38.04l.11-.05,.05-.11-.22-.16-.05,.11h.11v.22Zm-.11,.38l-.22,.05-.05,.16,.27,.16,.11-.11-.11-.27Zm-7.16-30.55h-.22s-.66,5.85-1.58,8.31h-.11s0,.11,.44,.71c0,0,0,.49-.22,.87l.11,.22s-1.09,7.38-1.09,8.63c0,0,.11,0,.11,.16,0,0,1.31-.16,1.91-.16h2.73s.22,0,.22-.22c0,0-1.37-9.07-1.8-15.3,0,0-.16,0-.49-3.22Zm-3.5-7.49h6.34s1.64,0,1.64,2.51c0,0,.87,4.7,2.24,16.94,0,0,.82,5.08,3.06,22.13,0,0,0,.44-.66,.93h-3.88s-1.42,0-1.69-4.92c0,0,.11-.16,.11-.44,0,0-.33,0-.93-5.57h-.11s-.71,0-6.12,.11c0,0-1.04,5.74-1.48,10.38,0,0-.71,.55-.82,.55,0,0-2.4-.11-3.61-.11,0,0-.87,0-1.15-.93,0,0,0-1.48,.82-2.13,0,0-.49-.6-.49-.82,0,0,1.26-9.78,1.97-9.78h.22s-.6-.6-.6-.87c0,0,1.2-9.02,1.58-9.02l.6-.11v-.11s0-.22-.71-.22c0,0,2.3-16.61,2.73-18.09,0,0,.49-.44,.93-.44Z"/></svg>